<svg width="40" height="40" viewBox="0 0 40 40" fill="none" xmlns="http://www.w3.org/2000/svg">
<g id="104445_video_youtube_icon 1">
<g id="Group">
<path id="Vector" d="M12.5176 22.3865H13.7441V28.6115H14.9294V22.3865H16.1546V21.3267H12.5176V22.3865Z" fill="white"/>
<path id="Vector_2" d="M19.7959 17.2149C19.9569 17.2149 20.0849 17.1713 20.1791 17.0821C20.2733 16.99 20.3215 16.8649 20.3215 16.7075V13.4815C20.3215 13.3522 20.2733 13.2468 20.1763 13.1687C20.0793 13.0879 19.9535 13.0479 19.7959 13.0479C19.6522 13.0479 19.5352 13.0879 19.4437 13.1687C19.3536 13.2468 19.3096 13.3529 19.3096 13.4815V16.7075C19.3096 16.8691 19.3515 16.9942 19.4361 17.0821C19.5194 17.1713 19.6405 17.2149 19.7959 17.2149Z" fill="white"/>
<path id="Vector_3" d="M22.4091 23.1716C22.2454 23.1716 22.0837 23.2145 21.9241 23.2995C21.7666 23.3845 21.6152 23.511 21.4742 23.6741V21.3267H20.4114V28.6115H21.4742V28.1996C21.6111 28.3655 21.7618 28.4864 21.9227 28.5651C22.0823 28.6431 22.2667 28.6817 22.4737 28.6817C22.784 28.6817 23.0248 28.5812 23.1871 28.3781C23.3522 28.1736 23.4355 27.8826 23.4355 27.5024V24.5196C23.4355 24.0789 23.3481 23.7437 23.1706 23.516C22.9959 23.2868 22.742 23.1716 22.4091 23.1716ZM22.3513 27.3541C22.3513 27.527 22.3203 27.6493 22.2598 27.7245C22.1993 27.8011 22.105 27.8384 21.9764 27.8384C21.8876 27.8384 21.8044 27.818 21.7225 27.7807C21.6421 27.7435 21.5574 27.6781 21.4742 27.591V24.2427C21.5457 24.1675 21.618 24.112 21.6902 24.0782C21.7624 24.041 21.8381 24.0248 21.9131 24.0248C22.0541 24.0248 22.1642 24.0712 22.2412 24.1633C22.3148 24.2582 22.3513 24.3952 22.3513 24.5779V27.3541Z" fill="white"/>
<path id="Vector_4" d="M18.5679 27.3219C18.4695 27.4372 18.3608 27.5321 18.2425 27.6087C18.1242 27.6839 18.0251 27.7211 17.9494 27.7211C17.8497 27.7211 17.7788 27.6937 17.7334 27.6361C17.6908 27.5799 17.6674 27.4878 17.6674 27.3613V23.2378H16.6169V27.7324C16.6169 28.0536 16.6789 28.2897 16.8013 28.4528C16.9265 28.6123 17.1074 28.6917 17.3509 28.6917C17.5484 28.6917 17.7527 28.6369 17.9625 28.5216C18.1723 28.405 18.3739 28.2405 18.5686 28.0233V28.6123H19.6204V23.2385H18.5686L18.5679 27.3219Z" fill="white"/>
<path id="Vector_5" d="M19.7505 3.62317C10.3948 3.62317 2.81055 11.3718 2.81055 20.9303C2.81055 30.4901 10.3948 38.2374 19.7505 38.2374C29.1061 38.2374 36.6904 30.4901 36.6904 20.9303C36.6904 11.3718 29.1054 3.62317 19.7505 3.62317ZM22.487 12.171H23.6695V16.7105C23.6695 16.8518 23.6964 16.9523 23.7459 17.0141C23.794 17.0774 23.8752 17.1104 23.9867 17.1104C24.0726 17.1104 24.1827 17.0675 24.3169 16.9853C24.4482 16.9003 24.5707 16.7949 24.6808 16.6641V12.171H25.866V18.0916H24.6808V17.4379C24.4648 17.6783 24.2371 17.8631 23.9997 17.9883C23.7645 18.1134 23.5361 18.178 23.3132 18.178C23.0394 18.178 22.8337 18.0888 22.6941 17.9116C22.5572 17.7373 22.487 17.4738 22.487 17.1182V12.171ZM18.0912 13.5246C18.0912 13.0678 18.2494 12.7023 18.5679 12.4275C18.8878 12.1583 19.3164 12.0212 19.8537 12.0212C20.3441 12.0212 20.7445 12.1653 21.0589 12.4507C21.3705 12.736 21.5267 13.1071 21.5267 13.5597V16.617C21.5267 17.1252 21.3733 17.5216 21.0685 17.8083C20.7596 18.0951 20.3379 18.2392 19.8 18.2392C19.2827 18.2392 18.8679 18.0909 18.5569 17.7957C18.2467 17.4963 18.0905 17.0957 18.0905 16.5931L18.0912 13.5246ZM14.8663 10.0667L15.7317 13.273H15.8163L16.6397 10.0667H17.9942L16.4437 14.763V18.0923H15.1105V14.9113L13.5235 10.0667H14.8663ZM30.3712 26.9577C30.3712 29.0992 28.6714 30.8373 26.5753 30.8373H13.3838C11.2864 30.8373 9.58652 29.0992 9.58652 26.9577V23.8386C9.58652 21.6957 11.2864 19.959 13.3838 19.959H26.5753C28.6714 19.959 30.3712 21.6957 30.3712 23.8386V26.9577Z" fill="white"/>
<path id="Vector_6" d="M25.5838 23.1052C25.1119 23.1052 24.7308 23.2507 24.4323 23.5459C24.1351 23.8383 23.9851 24.2199 23.9851 24.6824V27.0987C23.9851 27.6174 24.122 28.0236 24.3924 28.3174C24.6627 28.6126 25.0335 28.7609 25.5047 28.7609C26.0289 28.7609 26.4224 28.6224 26.6845 28.3448C26.9507 28.0651 27.0807 27.6504 27.0807 27.0987V26.8225H25.9993V27.0671C25.9993 27.384 25.9629 27.5886 25.8948 27.6806C25.8267 27.7727 25.7042 27.8191 25.5295 27.8191C25.3616 27.8191 25.2433 27.7657 25.1731 27.6574C25.1043 27.5464 25.0713 27.351 25.0713 27.0671V26.0557H27.0814V24.6831C27.0814 24.1749 26.9535 23.7856 26.6948 23.5122C26.4355 23.2409 26.0647 23.1052 25.5838 23.1052ZM25.9993 25.2193H25.0706V24.676C25.0706 24.4511 25.1043 24.2874 25.178 24.1939C25.2516 24.0934 25.3713 24.0456 25.5391 24.0456C25.6973 24.0456 25.817 24.0934 25.8886 24.1939C25.9608 24.2874 25.9986 24.4504 25.9986 24.676L25.9993 25.2193Z" fill="white"/>
</g>
</g>
</svg>
