<svg width="44" height="44" viewBox="0 0 44 44" fill="none" xmlns="http://www.w3.org/2000/svg">
<rect width="44" height="44" fill="white"/>
<path d="M42.625 2.75V0H6.875C3.83762 0 1.375 2.46262 1.375 5.5V38.5C1.375 41.5374 3.83762 44 6.875 44H42.625V8.25C41.1049 8.25 39.875 7.01998 39.875 5.5C39.875 3.98002 41.105 2.75 42.625 2.75ZM4.125 5.5C4.125 3.97994 5.35631 2.75 6.875 2.75H37.8877C37.415 3.56108 37.125 4.4929 37.125 5.5C37.125 6.5071 37.415 7.43901 37.8877 8.25H6.875C5.35631 8.25 4.125 7.01998 4.125 5.5Z" fill="black"/>
</svg>
