<svg width="63" height="42" viewBox="0 0 63 42" fill="none" xmlns="http://www.w3.org/2000/svg">
<g id="Group">
<path id="Vector" d="M55.2077 2.26011C52.2377 0.711957 48.8563 0 45.4877 0C40.3384 0 35.1955 1.66761 31.4991 4.57755C27.8027 1.66761 22.6598 0 17.5106 0C14.1356 0 10.7606 0.716736 7.79055 2.26011C-0.470158 6.56052 -2.4823 15.0276 3.30341 21.1676C3.30341 21.1676 5.57913 23.3178 7.09627 24.541C8.33698 25.5445 25.662 37.9105 30.3355 41.1836C30.3355 41.1836 30.8884 41.5802 31.5055 41.5802C32.1677 41.5802 32.6627 41.1836 32.6627 41.1836C37.3363 37.9058 54.6677 25.5445 55.9084 24.541C57.4191 23.313 59.6948 21.1676 59.6948 21.1676C65.4805 15.0228 63.4748 6.56052 55.2077 2.26011ZM56.802 19.5717C56.4291 19.9205 54.5198 21.7075 53.2534 22.7301C52.212 23.5711 35.5105 35.4593 32.1098 37.8819C31.962 38.0205 31.7305 38.0921 31.4734 38.0921C31.3448 38.0921 31.2098 38.0635 31.0877 38.0252C28.2205 35.9849 10.8184 23.5949 9.74484 22.7301C8.47841 21.7028 6.56913 19.9205 6.19627 19.5717C3.99127 17.1969 3.14913 14.3299 3.82413 11.4869C4.50555 8.61994 6.64627 6.12093 9.85412 4.45332C12.0913 3.29221 14.7334 2.67581 17.5106 2.67581C21.7213 2.67581 25.8677 4.03761 28.8827 6.4124L31.4991 8.47182L34.1156 6.4124C37.1305 4.03761 41.277 2.67581 45.4877 2.67581C48.2584 2.67581 50.907 3.29221 53.1441 4.45332C56.352 6.12093 58.4927 8.61994 59.1741 11.4869C59.8491 14.3299 59.007 17.1969 56.802 19.5717Z" fill="#D6E800"/>
</g>
</svg>
