<svg width="48" height="47" viewBox="0 0 48 47" fill="none" xmlns="http://www.w3.org/2000/svg">
<g id="Hover 2">
<path id="Vector" d="M19.5267 0H19.533V0.0027344C24.9233 0.00429691 29.8041 2.19064 33.3362 5.72348C36.8624 9.25125 39.0468 14.1279 39.0503 19.5138H39.0531V19.5267V19.5423H39.0503C39.0484 21.7131 38.6921 23.8021 38.037 25.7502C37.9273 26.0772 37.8124 26.3912 37.6945 26.6912V26.694C37.1296 28.1237 36.3995 29.4752 35.5276 30.7202L46.8879 40.9308L46.8949 40.937L46.9562 40.9941L46.9605 40.9984C47.602 41.6089 47.9512 42.4265 47.9953 43.2562C48.0383 44.0765 47.7832 44.9156 47.2223 45.5887L47.218 45.5949L47.1496 45.6742L47.1359 45.6879L47.0789 45.7504L47.0726 45.7586C46.4613 46.4 45.6453 46.7484 44.8148 46.7922C43.9957 46.8355 43.1558 46.5812 42.4824 46.0195L42.4765 46.0152L42.3968 45.9469L42.3855 45.9375L30.7663 35.4944C30.4225 35.7366 30.0717 35.9667 29.7166 36.1839C29.235 36.4788 28.7362 36.7565 28.2272 37.0101C25.6104 38.3155 22.6533 39.0499 19.5271 39.0499V39.0527H19.5209V39.0499C14.1306 39.0484 9.2489 36.862 5.71684 33.3292C2.18947 29.8014 0.00625005 24.924 0.0027344 19.5396H0V19.5267V19.5205H0.0027344C0.00429691 14.1302 2.19064 9.24851 5.72348 5.71645C9.25125 2.19064 14.1279 0.00625005 19.5138 0.0027344V0H19.5267ZM19.533 4.37894V4.38168H19.5267H19.5138V4.37894C15.3396 4.38168 11.556 6.07817 8.81687 8.81609C6.07817 11.554 4.38011 15.3415 4.37894 19.5209H4.38168V19.5271V19.54H4.37894C4.38168 23.7143 6.077 27.4959 8.81609 30.2358C11.554 32.9749 15.3415 34.6729 19.5205 34.6737V34.671H19.5267H19.5396V34.6737C23.7139 34.671 27.4959 32.9753 30.2358 30.2366C32.9745 27.4987 34.6725 23.7123 34.6733 19.5334H34.671V19.5271V19.5142H34.6733C34.671 15.34 32.9741 11.5563 30.2366 8.81726C27.4987 6.07817 23.7123 4.38011 19.533 4.37894Z" fill="black"/>
</g>
</svg>
