<svg width="22" height="19" viewBox="0 0 22 19" fill="none" xmlns="http://www.w3.org/2000/svg">
<path d="M22.0028 2.81794C21.198 3.1828 20.3335 3.42946 19.4247 3.54033C20.3522 2.97285 21.0628 2.07359 21.3984 1.00332C20.5172 1.53799 19.5529 1.91441 18.5473 2.1162C17.729 1.22499 16.562 0.668579 15.2709 0.668579C12.7928 0.668579 10.783 2.7211 10.783 5.25444C10.783 5.61339 10.8226 5.96357 10.8986 6.29979C7.16811 6.10824 3.86077 4.28255 1.64699 1.50841C1.26043 2.18593 1.03917 2.97368 1.03917 3.81416C1.03917 5.40497 1.83169 6.80856 3.03592 7.63075C2.32304 7.60818 1.6258 7.41159 1.0025 7.0574V7.11535C1.0025 9.33746 2.54948 11.1903 4.603 11.6117C4.22577 11.7173 3.82989 11.7725 3.42033 11.7725C3.13076 11.7725 2.84982 11.7445 2.57537 11.6917C3.14658 13.5131 4.80428 14.8388 6.76788 14.8763C5.23168 16.1066 3.296 16.84 1.19363 16.84C0.831523 16.84 0.473646 16.8179 0.122314 16.7747C2.10904 18.0762 4.46795 18.836 7.00288 18.836C15.2587 18.836 19.7739 11.8481 19.7739 5.78819C19.7739 5.58924 19.7696 5.39177 19.7602 5.19501C20.6399 4.54493 21.3993 3.74001 22.0028 2.81794Z" fill="#1E1E1E"/>
</svg>
