<svg width="24" height="35" viewBox="0 0 24 35" fill="none" xmlns="http://www.w3.org/2000/svg">
<path id="Vector" d="M11.9995 0C5.38289 0 0 5.38368 0 12.0004C0 18.3696 10.8873 33.2504 11.3509 33.8805L11.7836 34.4693C11.8341 34.5385 11.9147 34.579 11.9995 34.579C12.0856 34.579 12.1656 34.5385 12.2167 34.4693L12.6491 33.8805C13.1129 33.2504 24 18.3696 24 12.0004C24 5.38368 18.6162 0 11.9995 0ZM11.9995 7.7019C14.3702 7.7019 16.298 9.62978 16.298 12.0004C16.298 14.3699 14.3701 16.299 11.9995 16.299C9.63013 16.299 7.70094 14.3699 7.70094 12.0004C7.70094 9.62978 9.63004 7.7019 11.9995 7.7019Z" fill="white"/>
</svg>
