<svg width="35" height="35" viewBox="0 0 35 35" fill="none" xmlns="http://www.w3.org/2000/svg">
<path id="Vector" d="M22.8975 17.6449C22.8975 18.7413 22.5773 19.8132 21.9773 20.7249C21.3774 21.6365 20.5246 22.3471 19.5269 22.7667C18.5293 23.1863 17.4314 23.2961 16.3723 23.0822C15.3132 22.8683 14.3403 22.3403 13.5767 21.5649C12.8131 20.7896 12.2931 19.8018 12.0824 18.7264C11.8717 17.651 11.9799 16.5363 12.3931 15.5233C12.8064 14.5103 13.5062 13.6445 14.4041 13.0354C15.302 12.4262 16.3576 12.1011 17.4375 12.1011C18.8851 12.1027 20.2729 12.6874 21.2965 13.7267C22.3201 14.766 22.8958 16.1751 22.8975 17.6449ZM34.5 10.0221V25.2676C34.4971 27.8398 33.4895 30.3057 31.6982 32.1245C29.9069 33.9433 27.4783 34.9664 24.945 34.9693H9.93C7.39674 34.9664 4.96805 33.9433 3.17676 32.1245C1.38548 30.3057 0.377869 27.8398 0.375 25.2676V10.0221C0.377869 7.44997 1.38548 4.984 3.17676 3.16521C4.96805 1.34642 7.39674 0.323348 9.93 0.320435H24.945C27.4783 0.323348 29.9069 1.34642 31.6982 3.16521C33.4895 4.984 34.4971 7.44997 34.5 10.0221ZM25.6275 17.6449C25.6275 16.0002 25.1472 14.3924 24.2472 13.0249C23.3473 11.6574 22.0682 10.5915 20.5717 9.96214C19.0751 9.33274 17.4284 9.16806 15.8397 9.48893C14.251 9.80979 12.7917 10.6018 11.6463 11.7648C10.5009 12.9277 9.72088 14.4095 9.40487 16.0226C9.08886 17.6356 9.25105 19.3077 9.87093 20.8272C10.4908 22.3467 11.5405 23.6454 12.8874 24.5591C14.2342 25.4729 15.8177 25.9606 17.4375 25.9606C19.6089 25.9581 21.6906 25.0812 23.226 23.5222C24.7614 21.9633 25.625 19.8496 25.6275 17.6449ZM28.3575 8.63616C28.3575 8.22499 28.2374 7.82305 28.0124 7.48117C27.7874 7.13929 27.4677 6.87283 27.0935 6.71548C26.7194 6.55813 26.3077 6.51696 25.9106 6.59718C25.5134 6.67739 25.1485 6.87539 24.8622 7.16614C24.5759 7.45688 24.3808 7.82731 24.3018 8.23058C24.2228 8.63386 24.2634 9.05186 24.4184 9.43174C24.5733 9.81161 24.8358 10.1363 25.1725 10.3647C25.5092 10.5932 25.905 10.7151 26.31 10.7151C26.853 10.7151 27.3738 10.4961 27.7578 10.1062C28.1418 9.71632 28.3575 9.18753 28.3575 8.63616Z" fill="white"/>
</svg>
